<?xml version="1.0" encoding="UTF-8" standalone="no"?>
<!-- Created with Inkscape (http://www.inkscape.org/) -->

<svg
   width="77.516548mm"
   height="59.171036mm"
   viewBox="0 0 77.516548 59.171036"
   version="1.1"
   id="svg1"
   xmlns="http://www.w3.org/2000/svg"
   xmlns:svg="http://www.w3.org/2000/svg">
  <defs
     id="defs1" />
  <g
     id="layer1"
     transform="translate(-51.627979,-84.845272)">
    <path
       id="path12"
       d="m 116.67208,96.875699 c -0.71649,0 -1.3977,0.106186 -1.87536,0.238831 -5.90021,-0.318559 -8.72243,0.972961 -11.09275,0.972961 -1.42416,0 -6.829068,-2.538589 -11.093093,-4.228395 0,0 5.396088,-1.371247 10.518073,-1.371247 5.12162,0 10.17269,2.892778 11.65895,4.617861 -3.2378,-7.722658 -14.02962,-12.260438 -20.257207,-12.260438 -13.136385,0 -20.36339,6.519333 -29.908145,6.678788 -1.114425,0.01764 -4.201583,0 -4.201583,0 0,5.83812 2.184752,9.24384 3.148894,10.1727 -2.379486,1.37089 -11.94188,13.36604 -11.94188,18.96569 l 0.415925,1.04351 7.704666,0.99095 -1.495072,7.89059 0.415925,1.04386 7.580841,0.99096 -2.742141,9.36766 0.415925,1.04351 c 0,0 2.617964,0.98214 6.342238,0.98214 3.343981,0 17.771533,0.39793 19.956285,-18.09856 0.0088,-0.0801 0.01799,-0.15064 0.02681,-0.22119 2.547408,9.97796 9.226196,11.81805 22.964069,11.81805 3.88338,0 2.26413,-5.14844 2.68887,-6.83789 0.42474,-0.25682 0.76094,-0.97331 0.51329,-1.81363 0.24765,-0.21202 0.57503,-0.74295 0.57503,-1.17651 0,-0.99977 -0.52211,-2.32622 -0.52211,-4.48487 1.15005,-0.32702 3.22897,-0.73413 3.22897,-2.31739 0,-0.94651 -2.12337,-6.1655 -3.44134,-9.59803 -0.20356,-0.53975 -0.64559,-0.96414 -1.2118,-0.96414 -0.89323,-0.009 -1.26506,1.19451 -3.70663,1.19451 -4.49333,0.008 -2.83951,-4.27285 -16.399933,-3.39725 -1.662994,0.10618 -2.132189,0.59266 -2.335389,2.17628 -0.4953,3.85657 -0.398286,14.28609 1.866547,20.54931 -2.8575,-3.10515 -3.777544,-9.02335 -4.210755,-13.61405 -0.911225,8.50971 -1.406525,20.16866 -12.181063,24.02522 -4.635147,1.59244 -9.765594,1.2827 -14.542558,0.72567 2.892778,0.0441 5.785203,-0.0444 8.642702,-0.43392 1.875014,-0.2473 3.723922,-0.67204 5.457472,-1.44145 12.499269,-5.26309 8.598606,-22.06201 11.614855,-30.28844 -5.52838,5.56437 -6.616699,20.61986 -20.221574,21.36281 -3.609269,0.21202 -7.191727,-0.0706 -10.74808,-0.61066 3.547534,0.0977 7.138811,0.0536 10.641894,-0.43321 12.207522,-1.65417 12.393083,-14.81666 18.134188,-21.45136 -2.344208,0.50412 -4.635499,1.24743 -6.732058,2.39748 -3.095977,1.61855 -5.307541,4.17513 -7.890227,6.58107 -3.335161,3.11362 -7.041444,4.05165 -11.526308,3.76837 -3.087511,-0.15028 -6.174669,-0.39793 -9.253008,-0.77822 0.123825,0 5.289903,-0.14182 5.289903,-0.14182 3.379258,-0.16792 7.032624,0.0441 10.16388,-1.3529 2.361847,-1.00895 4.08693,-2.89313 5.794375,-4.7685 3.184524,-3.61774 6.722885,-6.1214 11.384491,-7.47466 3.476272,-1.0615 14.799379,-2.22038 21.831646,-1.95509 4.14902,0.15946 12.65838,1.19451 18.12537,3.38808 -0.0885,-0.0176 -0.16792,-0.0441 -0.25647,-0.0617 -2.30893,-0.46884 -5.02461,-0.19473 -7.23582,0.67204 2.29976,0.0621 4.80307,0.21238 6.75816,0.70768 1.72473,0.43356 5.08635,1.16769 5.53756,3.05223 0.0176,-0.12418 0.097,-0.60184 0.097,-1.7519 0,-7.29791 -6.07695,-14.091351 -12.47246,-14.091351"
       style="fill:#000441;fill-opacity:1;fill-rule:nonzero;stroke:none;stroke-width:0.352778" />
    <path
       id="path1"
       d="m 116.67208,96.875699 c -0.71649,0 -1.3977,0.106186 -1.87536,0.238831 -5.90021,-0.318559 -8.72243,0.972961 -11.09275,0.972961 -1.42416,0 -6.829068,-2.538589 -11.093093,-4.228395 0,0 5.396088,-1.371247 10.518073,-1.371247 5.12162,0 10.17269,2.892778 11.65895,4.617861 -3.2378,-7.722658 -14.02962,-12.260438 -20.257207,-12.260438 -13.136385,0 -20.36339,6.519333 -29.908145,6.678788 -1.114425,0.01764 -4.201583,0 -4.201583,0 0,5.83812 2.184752,9.24384 3.148894,10.1727 -2.379486,1.37089 -11.94188,13.36604 -11.94188,18.96569 l 0.415925,1.04351 7.704666,0.99095 -1.495072,7.89059 0.415925,1.04386 7.580841,0.99096 -2.742141,9.36766 0.415925,1.04351 c 0,0 2.617964,0.98214 6.342238,0.98214 3.343981,0 17.771533,0.39793 19.956285,-18.09856 0.0088,-0.0801 0.01799,-0.15064 0.02681,-0.22119 2.547408,9.97796 9.226196,11.81805 22.964069,11.81805 3.88338,0 2.26413,-5.14844 2.68887,-6.83789 0.42474,-0.25682 0.76094,-0.97331 0.51329,-1.81363 0.24765,-0.21202 0.57503,-0.74295 0.57503,-1.17651 0,-0.99977 -0.52211,-2.32622 -0.52211,-4.48487 1.15005,-0.32702 3.22897,-0.73413 3.22897,-2.31739 0,-0.94651 -2.12337,-6.1655 -3.44134,-9.59803 -0.20356,-0.53975 -0.64559,-0.96414 -1.2118,-0.96414 -0.89323,-0.009 -1.26506,1.19451 -3.70663,1.19451 -4.49333,0.008 -2.83951,-4.27285 -16.399933,-3.39725 -1.662994,0.10618 -2.132189,0.59266 -2.335389,2.17628 -0.4953,3.85657 -0.398286,14.28609 1.866547,20.54931 -2.8575,-3.10515 -3.777544,-9.02335 -4.210755,-13.61405 -0.911225,8.50971 -1.406525,20.16866 -12.181063,24.02522 -4.635147,1.59244 -9.765594,1.2827 -14.542558,0.72567 2.892778,0.0441 5.785203,-0.0444 8.642702,-0.43392 1.875014,-0.2473 3.723922,-0.67204 5.457472,-1.44145 12.499269,-5.26309 8.598606,-22.06201 11.614855,-30.28844 -5.52838,5.56437 -6.616699,20.61986 -20.221574,21.36281 -3.609269,0.21202 -7.191727,-0.0706 -10.74808,-0.61066 3.547534,0.0977 7.138811,0.0536 10.641894,-0.43321 12.207522,-1.65417 12.393083,-14.81666 18.134188,-21.45136 -2.344208,0.50412 -4.635499,1.24743 -6.732058,2.39748 -3.095977,1.61855 -5.307541,4.17513 -7.890227,6.58107 -3.335161,3.11362 -7.041444,4.05165 -11.526308,3.76837 -3.087511,-0.15028 -6.174669,-0.39793 -9.253008,-0.77822 0.123825,0 5.289903,-0.14182 5.289903,-0.14182 3.379258,-0.16792 7.032624,0.0441 10.16388,-1.3529 2.361847,-1.00895 4.08693,-2.89313 5.794375,-4.7685 3.184524,-3.61774 6.722885,-6.1214 11.384491,-7.47466 3.476272,-1.0615 14.799379,-2.22038 21.831646,-1.95509 4.14902,0.15946 12.65838,1.19451 18.12537,3.38808 -0.0885,-0.0176 -0.16792,-0.0441 -0.25647,-0.0617 -2.30893,-0.46884 -5.02461,-0.19473 -7.23582,0.67204 2.29976,0.0621 4.80307,0.21238 6.75816,0.70768 1.72473,0.43356 5.08635,1.16769 5.53756,3.05223 0.0176,-0.12418 0.097,-0.60184 0.097,-1.7519 0,-7.29791 -6.07695,-14.091351 -12.47246,-14.091351"
       style="fill:#000441;fill-opacity:1;fill-rule:nonzero;stroke:none;stroke-width:0.352778" />
    <path
       id="path2"
       d="m 116.67208,96.875699 c -0.71649,0 -1.3977,0.106186 -1.87536,0.238831 -5.90021,-0.318559 -8.72243,0.972961 -11.09275,0.972961 -1.42416,0 -6.829068,-2.538589 -11.093093,-4.228395 0,0 5.396088,-1.371247 10.518073,-1.371247 5.12162,0 10.17269,2.892778 11.65895,4.617861 -3.2378,-7.722658 -14.02962,-12.260438 -20.257207,-12.260438 -13.136385,0 -20.36339,6.519333 -29.908145,6.678788 -1.114425,0.01764 -4.201583,0 -4.201583,0 0,5.83812 2.184752,9.24384 3.148894,10.1727 -2.379486,1.37089 -11.94188,13.36604 -11.94188,18.96569 l 0.415925,1.04351 7.704666,0.99095 -1.495072,7.89059 0.415925,1.04386 7.580841,0.99096 -2.742141,9.36766 0.415925,1.04351 c 0,0 2.617964,0.98214 6.342238,0.98214 3.343981,0 17.771533,0.39793 19.956285,-18.09856 0.0088,-0.0801 0.01799,-0.15064 0.02681,-0.22119 2.547408,9.97796 9.226196,11.81805 22.964069,11.81805 3.88338,0 2.26413,-5.14844 2.68887,-6.83789 0.42474,-0.25682 0.76094,-0.97331 0.51329,-1.81363 0.24765,-0.21202 0.57503,-0.74295 0.57503,-1.17651 0,-0.99977 -0.52211,-2.32622 -0.52211,-4.48487 1.15005,-0.32702 3.22897,-0.73413 3.22897,-2.31739 0,-0.94651 -2.12337,-6.1655 -3.44134,-9.59803 -0.20356,-0.53975 -0.64559,-0.96414 -1.2118,-0.96414 -0.89323,-0.009 -1.26506,1.19451 -3.70663,1.19451 -4.49333,0.008 -2.83951,-4.27285 -16.399933,-3.39725 -1.662994,0.10618 -2.132189,0.59266 -2.335389,2.17628 -0.4953,3.85657 -0.398286,14.28609 1.866547,20.54931 -2.8575,-3.10515 -3.777544,-9.02335 -4.210755,-13.61405 -0.911225,8.50971 -1.406525,20.16866 -12.181063,24.02522 -4.635147,1.59244 -9.765594,1.2827 -14.542558,0.72567 2.892778,0.0441 5.785203,-0.0444 8.642702,-0.43392 1.875014,-0.2473 3.723922,-0.67204 5.457472,-1.44145 12.499269,-5.26309 8.598606,-22.06201 11.614855,-30.28844 -5.52838,5.56437 -6.616699,20.61986 -20.221574,21.36281 -3.609269,0.21202 -7.191727,-0.0706 -10.74808,-0.61066 3.547534,0.0977 7.138811,0.0536 10.641894,-0.43321 12.207522,-1.65417 12.393083,-14.81666 18.134188,-21.45136 -2.344208,0.50412 -4.635499,1.24743 -6.732058,2.39748 -3.095977,1.61855 -5.307541,4.17513 -7.890227,6.58107 -3.335161,3.11362 -7.041444,4.05165 -11.526308,3.76837 -3.087511,-0.15028 -6.174669,-0.39793 -9.253008,-0.77822 0.123825,0 5.289903,-0.14182 5.289903,-0.14182 3.379258,-0.16792 7.032624,0.0441 10.16388,-1.3529 2.361847,-1.00895 4.08693,-2.89313 5.794375,-4.7685 3.184524,-3.61774 6.722885,-6.1214 11.384491,-7.47466 3.476272,-1.0615 14.799379,-2.22038 21.831646,-1.95509 4.14902,0.15946 12.65838,1.19451 18.12537,3.38808 -0.0885,-0.0176 -0.16792,-0.0441 -0.25647,-0.0617 -2.30893,-0.46884 -5.02461,-0.19473 -7.23582,0.67204 2.29976,0.0621 4.80307,0.21238 6.75816,0.70768 1.72473,0.43356 5.08635,1.16769 5.53756,3.05223 0.0176,-0.12418 0.097,-0.60184 0.097,-1.7519 0,-7.29791 -6.07695,-14.091351 -12.47246,-14.091351"
       style="fill:#000441;fill-opacity:1;fill-rule:nonzero;stroke:none;stroke-width:0.352778" />
  </g>
</svg>
